<svg xmlns="http://www.w3.org/2000/svg" id="Group_47" width="74.689" height="61.808" data-name="Group 47" viewBox="0 0 74.689 61.808">
    <defs>
        <style>
            .cls-1{fill:#055842}
        </style>
    </defs>
    <g id="Group_2" data-name="Group 2">
        <path id="Path_8" d="M33.277 50.448H18.765l5.191 14.311a1.5 1.5 0 0 0 1.419.986h11.861a1.493 1.493 0 0 0 1.389-2.045z" class="cls-1" data-name="Path 8" transform="translate(-13.141 -3.937)"/>
        <path id="Path_9" d="M35.928 30.408H20.3a5.3 5.3 0 0 0-5.3 5.3v16.345a5.3 5.3 0 0 0 5.3 5.3h15.628z" class="cls-1" data-name="Path 9" transform="translate(-15 -13.832)"/>
        <path id="Path_10" d="M60.53 32.592v20.425a11.148 11.148 0 0 0 0-20.425z" class="cls-1" data-name="Path 10" transform="translate(7.482 -12.754)"/>
        <path id="Path_11" d="M71.287 19.443a1.464 1.464 0 0 0-1.6.254A62.328 62.328 0 0 1 31.074 35.8v27.142h-.194a60.993 60.993 0 0 1 19.389 4.078 62.55 62.55 0 0 1 19.419 11.994 1.505 1.505 0 0 0 1 .388 1.638 1.638 0 0 0 .6-.119 1.486 1.486 0 0 0 .9-1.374V20.8a1.465 1.465 0 0 0-.901-1.357zm-5.632 14.34A71.338 71.338 0 0 1 35.57 44.269a.619.619 0 0 1-.164.015 1.49 1.49 0 0 1-.149-2.973 68.374 68.374 0 0 0 28.8-10.068 1.5 1.5 0 0 1 1.6 2.54z" class="cls-1" data-name="Path 11" transform="translate(-7.159 -19.311)"/>
    </g>
</svg>
