<svg xmlns="http://www.w3.org/2000/svg" id="Group_51" width="68.672" height="62.385" data-name="Group 51" viewBox="0 0 68.672 62.385">
    <defs>
        <style>
            .cls-1{fill:#055842;fill-rule:evenodd}
        </style>
    </defs>
    <g id="Group_18" data-name="Group 18">
        <path id="Path_59" d="M360.656 475.357c-8.1-9.386 9.242-11.748 15.2-13.123 4.633-1.056 9.083-2.209 12.813-5.381 4.032-3.285 8.156-8.4 11.911-12.264 6.245 6.753-18.213 22.525-28.521 21.9-5.182-.322-10.764 2.761-11.403 8.868zm55.629-18.657h-.191a2.24 2.24 0 0 0 .191-.127zm-2.337.916c-.663 1.542-1.821 3.805-3.483 6.818-3.3 5.678-2.7 13.984 5.218 14.066 9.957.414 8.886-9.617 5.356-15.91q-2.959-5.3-4.107-7.565c-.348-2.673-5.642-6.823-6.841-7.921-2.539-2.328-4.518-4.712-7.317-7.058-1.3-1.087-2.807-2.47-3.939-.062a17.871 17.871 0 0 1-1.338 3.265 58.906 58.906 0 0 1-11.307 11.642c-3.267 2.6-15.912 5.542-21.392 6.723-6.941 1.663-13.374 7.715-7.812 14.569 3.486 4.465 8.789 8.146 12.9 12.139q10 9.709 11.285 10.61c6.943 4.847 12.241.74 14.144-6.37 1.692-6.377 2.509-16.669 5.65-21.7 2.756-4.451 7.835-10.721 12.983-13.247z" class="cls-1" data-name="Path 59" transform="translate(-354.879 -438.652)"/>
    </g>
</svg>
